<svg xmlns="http://www.w3.org/2000/svg" width="400" height="130" viewBox="0 0 400 130">

    <defs>
      <linearGradient id="brandGrad" x1="0" y1="0" x2="1" y2="1">
        <stop offset="0" stop-color="#2563EB"/>
        <stop offset="1" stop-color="#7C3AED"/>
      </linearGradient>
      <filter id="softShadow" x="-20%" y="-20%" width="140%" height="140%">
        <feDropShadow dx="0" dy="10" stdDeviation="12" flood-color="#0F172A" flood-opacity="0.16"/>
      </filter>
    </defs>


    <g transform="translate(20 18) scale(0.36)">
      <path d="M130 25 C101 43 88 79 82 116 C78 137 117 133 151 130 C178 128 193 125 190 114 C183 80 167 48 143 26 C139 22 134 22 130 25 Z" fill="#2563EB"/>
      <path d="M151 45 C171 52 181 69 179 87 C179 94 173 99 166 98 C159 97 155 91 157 84 C160 76 155 67 145 62 Z" fill="#2563EB"/>
      <circle cx="177" cy="84" r="10" fill="#FFFFFF" opacity="0.95"/>
      <path d="M66 128 C79 111 111 104 151 105 C184 106 207 115 218 128 C224 136 218 147 207 147 C168 139 113 139 73 147 C61 148 58 137 66 128 Z" fill="#2563EB"/>
      <path d="M78 150 C93 158 111 160 128 160 C146 160 168 158 190 150 C191 177 177 207 151 226 C143 232 134 238 128 239 C121 237 111 232 102 225 C83 208 74 180 78 150 Z" fill="#2563EB"/>
      <path d="M97 158 C114 164 140 165 161 158 C160 177 150 199 128 219 C106 200 98 177 97 158 Z" fill="#FFFFFF" opacity="0.98"/>
      <path d="M128 165 L137 190 L162 199 L137 208 L128 233 L119 208 L94 199 L119 190 Z" fill="#16A34A"/>
      <path d="M74 148 C105 139 157 139 207 148" fill="none" stroke="#FFFFFF" stroke-width="12" stroke-linecap="round" opacity="0.95"/>
    </g><text x="115" y="78" font-family="Inter, Arial, sans-serif" font-size="52" font-weight="800" fill="#0F172A">Gnomo</text>
</svg>